<?xml version="1.0" encoding="utf-8"?>
<!-- Generator: Adobe Illustrator 26.1.0, SVG Export Plug-In . SVG Version: 6.00 Build 0)  -->
<svg version="1.1" id="Слой_1" xmlns="http://www.w3.org/2000/svg" xmlns:xlink="http://www.w3.org/1999/xlink" x="0px" y="0px"
	 viewBox="0 0 941.8 943" style="enable-background:new 0 0 941.8 943;" xml:space="preserve">
<style type="text/css">
	.st0{fill:#F5F4F7;}
</style>
<polygon class="st0" points="637.9,321 637.9,622 537.9,622 537.9,472 471.9,547 405.9,472 405.9,622 305.9,622 305.9,321 
	405.9,321 471.9,396 537.9,321 "/>
<path class="st0" d="M89.9,621V292c5.3-33,20.3-92.8,69-140c45.6-44.2,99.5-65,146-65c201,0,472,0,551,0v121h-553c0,0-80,3-98,101
	c0,210,0,214,0,214S189.9,620,89.9,621z"/>
<path class="st0" d="M852.9,324v329c-5.3,33-20.3,92.8-69,140c-45.6,44.2-99.5,65-146,65c-201,0-472,0-551,0V737h553
	c0,0,80-3,98-101c0-210,0-214,0-214S752.9,325,852.9,324z"/>
</svg>
